<svg xmlns="http://www.w3.org/2000/svg" width="880" height="400" viewBox="0 0 880 400" role="img" font-family="system-ui, -apple-system, 'Segoe UI', sans-serif">
  <text x="332.9" y="17" font-size="12" fill="#c3c2b7">Median throughput as a multiple of RNS 1.4.0 (compiled) · higher is better</text>
  <line x1="345.2" y1="34.0" x2="345.2" y2="378.0" stroke="#383835" stroke-width="1"/>
  <text x="345.2" y="394.0" font-size="11" fill="#898781" text-anchor="middle" font-variant-numeric="tabular-nums">1×</text>
  <line x1="456.2" y1="34.0" x2="456.2" y2="378.0" stroke="#2c2c2a" stroke-width="1"/>
  <text x="456.2" y="394.0" font-size="11" fill="#898781" text-anchor="middle" font-variant-numeric="tabular-nums">10×</text>
  <line x1="579.6" y1="34.0" x2="579.6" y2="378.0" stroke="#2c2c2a" stroke-width="1"/>
  <text x="579.6" y="394.0" font-size="11" fill="#898781" text-anchor="middle" font-variant-numeric="tabular-nums">20×</text>
  <line x1="702.9" y1="34.0" x2="702.9" y2="378.0" stroke="#2c2c2a" stroke-width="1"/>
  <text x="702.9" y="394.0" font-size="11" fill="#898781" text-anchor="middle" font-variant-numeric="tabular-nums">30×</text>
  <line x1="332.9" y1="34.0" x2="332.9" y2="378.0" stroke="#383835" stroke-width="1"/>
  <text x="322.9" y="55.5" font-size="13" fill="#c3c2b7" text-anchor="end">Single-packet throughput</text>
  <path d="M332.9,41.0 L422.7,41.0 Q426.7,41.0 426.7,45.0 L426.7,57.0 Q426.7,61.0 422.7,61.0 L332.9,61.0 Z" fill="#3987e5"/>
  <text x="434.7" y="55.5" font-size="12.5" font-weight="600" fill="#ffffff">7.60×</text>
  <text x="322.9" y="89.5" font-size="13" fill="#c3c2b7" text-anchor="end">Link-message throughput</text>
  <path d="M332.9,75.0 L442.9,75.0 Q446.9,75.0 446.9,79.0 L446.9,91.0 Q446.9,95.0 442.9,95.0 L332.9,95.0 Z" fill="#3987e5"/>
  <text x="454.9" y="89.5" font-size="12.5" font-weight="600" fill="#ffffff">9.24×</text>
  <text x="322.9" y="123.5" font-size="13" fill="#c3c2b7" text-anchor="end">Request/response</text>
  <path d="M332.9,109.0 L521.5,109.0 Q525.5,109.0 525.5,113.0 L525.5,125.0 Q525.5,129.0 521.5,129.0 L332.9,129.0 Z" fill="#3987e5"/>
  <text x="533.5" y="123.5" font-size="12.5" font-weight="600" fill="#ffffff">15.62×</text>
  <text x="322.9" y="157.5" font-size="13" fill="#c3c2b7" text-anchor="end">Maximum resource segment</text>
  <path d="M332.9,143.0 L363.4,143.0 Q367.4,143.0 367.4,147.0 L367.4,159.0 Q367.4,163.0 363.4,163.0 L332.9,163.0 Z" fill="#3987e5"/>
  <text x="375.4" y="157.5" font-size="12.5" font-weight="600" fill="#ffffff">2.80×</text>
  <text x="322.9" y="191.5" font-size="13" fill="#c3c2b7" text-anchor="end">Maximum resource segment · 1 Gbps policy</text>
  <path d="M332.9,177.0 L427.4,177.0 Q431.4,177.0 431.4,181.0 L431.4,193.0 Q431.4,197.0 427.4,197.0 L332.9,197.0 Z" fill="#3987e5"/>
  <text x="439.4" y="191.5" font-size="12.5" font-weight="600" fill="#ffffff">7.98×</text>
  <text x="322.9" y="225.5" font-size="13" fill="#c3c2b7" text-anchor="end">64 MiB resource stream</text>
  <path d="M332.9,211.0 L363.6,211.0 Q367.6,211.0 367.6,215.0 L367.6,227.0 Q367.6,231.0 363.6,231.0 L332.9,231.0 Z" fill="#3987e5"/>
  <text x="375.6" y="225.5" font-size="12.5" font-weight="600" fill="#ffffff">2.81×</text>
  <text x="322.9" y="259.5" font-size="13" fill="#c3c2b7" text-anchor="end">64 MiB resource stream · 1 Gbps policy</text>
  <path d="M332.9,245.0 L418.4,245.0 Q422.4,245.0 422.4,249.0 L422.4,261.0 Q422.4,265.0 418.4,265.0 L332.9,265.0 Z" fill="#3987e5"/>
  <text x="430.4" y="259.5" font-size="12.5" font-weight="600" fill="#ffffff">7.26×</text>
  <text x="322.9" y="293.5" font-size="13" fill="#c3c2b7" text-anchor="end">Raw transport throughput</text>
  <path d="M332.9,279.0 L814.0,279.0 Q818.0,279.0 818.0,283.0 L818.0,295.0 Q818.0,299.0 814.0,299.0 L332.9,299.0 Z" fill="#3987e5"/>
  <text x="826.0" y="293.5" font-size="12.5" font-weight="600" fill="#ffffff">39.33×</text>
  <text x="322.9" y="327.5" font-size="13" fill="#c3c2b7" text-anchor="end">Transported resource throughput</text>
  <path d="M332.9,313.0 L345.1,313.0 Q349.1,313.0 349.1,317.0 L349.1,329.0 Q349.1,333.0 345.1,333.0 L332.9,333.0 Z" fill="#3987e5"/>
  <text x="357.1" y="327.5" font-size="12.5" font-weight="600" fill="#ffffff">1.31×</text>
  <text x="322.9" y="361.5" font-size="13" fill="#c3c2b7" text-anchor="end">Transported resource throughput · 1 Gbps policy</text>
  <path d="M332.9,347.0 L390.0,347.0 Q394.0,347.0 394.0,351.0 L394.0,363.0 Q394.0,367.0 390.0,367.0 L332.9,367.0 Z" fill="#3987e5"/>
  <text x="402.0" y="361.5" font-size="12.5" font-weight="600" fill="#ffffff">4.96×</text>
  <line x1="332.9" y1="378.0" x2="818.0" y2="378.0" stroke="#383835" stroke-width="1"/>
</svg>
